<?xml version="1.0" standalone="no"?>
<!DOCTYPE svg PUBLIC "-//W3C//DTD SVG 1.1//EN" "http://www.w3.org/Graphics/SVG/1.1/DTD/svg11.dtd" >
<svg xmlns="http://www.w3.org/2000/svg" xmlns:xlink="http://www.w3.org/1999/xlink" version="1.1">
<metadata>
Created by FontForge 20170731 at Sat Dec  7 06:33:57 2013
 By ,,,
Copyright (c) 2013 by Paulo R. All rights reserved.
</metadata>
<defs>
<font id="Aspergit" horiz-adv-x="600" >
  <font-face 
    font-family="Aspergit"
    font-weight="400"
    font-stretch="normal"
    units-per-em="1000"
    panose-1="2 0 5 3 0 0 0 2 0 4"
    ascent="750"
    descent="-250"
    x-height="500"
    cap-height="750"
    bbox="-170 -250 1280 920"
    underline-thickness="50"
    underline-position="-200"
    unicode-range="U+0020-F8FF"
  />
<missing-glyph horiz-adv-x="550" 
d="M25 -200v1000h500v-1000h-500zM96 750l179 -390l179 390h-358zM75 -76l172 376l-172 376v-752zM475 676l-172 -376l172 -376v752zM275 240l-179 -390h358z" />
    <glyph glyph-name="percent" unicode="&#x30;&#x2f;&#x30;" horiz-adv-x="910" 
d="M625 750l-307 -750h-33l307 750h33zM470 195q0 81 57 138t138 57t138 -57t57 -138t-57 -138t-138 -57t-138 57t-57 138zM500 195q0 -68 48.5 -116.5t116.5 -48.5t116.5 48.5t48.5 116.5t-48.5 116.5t-116.5 48.5t-116.5 -48.5t-48.5 -116.5zM50 555q0 81 57 138t138 57
t138 -57t57 -138t-57 -138t-138 -57t-138 57t-57 138zM80 555q0 -68 48.5 -116.5t116.5 -48.5t116.5 48.5t48.5 116.5t-48.5 116.5t-116.5 48.5t-116.5 -48.5t-48.5 -116.5z" />
    <glyph glyph-name="AE" unicode="AE" horiz-adv-x="912" 
d="M462 0v185h-298l-82 -185h-32l332 750h480v-30h-370v-330h340v-30h-340v-330h370v-30h-400zM401 720l-224 -505h285v505h-61z" />
    <glyph glyph-name="ae" unicode="ae" horiz-adv-x="1070" 
d="M1020 235h-470q6 -86 69.5 -145.5t150.5 -59.5q91 0 155 64l22 -20q-72 -74 -177 -74q-70 0 -129 36t-91 95v-131h-30v131q-33 -60 -91.5 -95.5t-128.5 -35.5q-104 0 -177 73t-73 177t73 177t177 73q80 0 144 -46t91 -119q27 73 91 119t144 46q104 0 177 -73t73 -177v-15
zM80 250q0 -91 64.5 -155.5t155.5 -64.5q90 0 155 63.5t65 156.5q0 91 -64.5 155.5t-155.5 64.5t-155.5 -64.5t-64.5 -155.5zM770 470q-87 0 -150.5 -59.5t-69.5 -145.5h439q-6 86 -69 145.5t-150 59.5z" />
    <glyph glyph-name="OE" unicode="OE" horiz-adv-x="875" 
d="M425 0q-155 0 -265 110t-110 265t110 265t265 110h400v-30h-370v-330h340v-30h-340v-330h370v-30h-400zM80 375q0 -143 101 -244t244 -101v690q-143 0 -244 -101t-101 -244z" />
    <glyph glyph-name="oe" unicode="oe" horiz-adv-x="1070" 
d="M1020 235h-470q6 -86 69.5 -145.5t150.5 -59.5q91 0 155 64l22 -20q-72 -74 -177 -74q-80 0 -144 46t-91 119q-27 -73 -91 -119t-144 -46q-104 0 -177 73t-73 177t73 177t177 73q80 0 144 -46t91 -119q27 73 91 119t144 46q104 0 177 -73t73 -177v-15zM80 250
q0 -91 64.5 -155.5t155.5 -64.5q90 0 155 63.5t65 156.5t-65 156.5t-155 63.5q-91 0 -155.5 -64.5t-64.5 -155.5zM770 470q-87 0 -150.5 -59.5t-69.5 -145.5h439q-6 86 -69 145.5t-150 59.5z" />
    <glyph glyph-name="ellipsis" unicode="&#x2e;&#x2e;&#x2e;" horiz-adv-x="250" 
d="M80 70v-70h-30v70h30zM140 70v-70h-30v70h30zM200 70v-70h-30v70h30z" />
    <glyph glyph-name="perthousand" unicode="&#x30;&#x2f;&#x30;&#x30;" horiz-adv-x="1330" 
d="M625 750l-307 -750h-33l307 750h33zM470 195q0 81 57 138t138 57t138 -57t57 -138t-57 -138t-138 -57t-138 57t-57 138zM500 195q0 -68 48.5 -116.5t116.5 -48.5t116.5 48.5t48.5 116.5t-48.5 116.5t-116.5 48.5t-116.5 -48.5t-48.5 -116.5zM50 555q0 81 57 138t138 57
t138 -57t57 -138t-57 -138t-138 -57t-138 57t-57 138zM80 555q0 -68 48.5 -116.5t116.5 -48.5t116.5 48.5t48.5 116.5t-48.5 116.5t-116.5 48.5t-116.5 -48.5t-48.5 -116.5zM890 195q0 81 57 138t138 57t138 -57t57 -138t-57 -138t-138 -57t-138 57t-57 138zM920 195
q0 -68 48.5 -116.5t116.5 -48.5t116.5 48.5t48.5 116.5t-48.5 116.5t-116.5 48.5t-116.5 -48.5t-48.5 -116.5z" />
    <glyph glyph-name=".notdef" horiz-adv-x="550" 
d="M25 -200v1000h500v-1000h-500zM96 750l179 -390l179 390h-358zM75 -76l172 376l-172 376v-752zM475 676l-172 -376l172 -376v752zM275 240l-179 -390h358z" />
    <glyph glyph-name=".null" horiz-adv-x="0" 
 />
    <glyph glyph-name="nonmarkingreturn" horiz-adv-x="333" 
 />
    <glyph glyph-name="space" unicode=" " horiz-adv-x="250" 
 />
    <glyph glyph-name="exclam" unicode="!" horiz-adv-x="130" 
d="M50 250v500h30v-500h-30zM80 100v-100h-30v100h30z" />
    <glyph glyph-name="quotedbl" unicode="&#x22;" horiz-adv-x="190" 
d="M50 600v150h30v-150h-30zM110 600v150h30v-150h-30z" />
    <glyph glyph-name="numbersign" unicode="#" horiz-adv-x="698" 
d="M648 99h-184l-26 -99h-31l26 99h-249l-26 -99h-31l26 99h-95l-8 30h111l65 241h-168l-8 30h184l27 100h31l-27 -100h249l27 100h31l-27 -100h95l8 -30h-111l-65 -241h168zM257 370l-65 -241h249l65 241h-249z" />
    <glyph glyph-name="dollar" unicode="$" horiz-adv-x="490" 
d="M50 0v30h180v334q-43 12 -67.5 22.5t-54.5 31.5t-44 55t-14 82q0 77 52 133t128 61v71h30v-70h180v-30h-180v-335q34 -10 54 -17t47.5 -22.5t42 -33.5t25.5 -48t11 -69q0 -77 -52 -133t-128 -62v-70h-30v70h-180zM80 555q0 -72 38.5 -105.5t111.5 -55.5v325
q-63 -5 -106.5 -52.5t-43.5 -111.5zM410 195q0 72 -38.5 105.5t-111.5 54.5v-325q63 6 106.5 53.5t43.5 111.5z" />
    <glyph glyph-name="ampersand" unicode="&#x26;" 
d="M174 466l278 -375q68 65 68 159h30q0 -110 -80 -183l50 -67h-37l-36 48q-63 -48 -147 -48q-104 0 -177 73t-73 177q0 60 26.5 112.5t72.5 86.5q-41 64 -27.5 139.5t75.5 121.5q65 49 145 37t127 -77q37 -49 39 -110h-29q-2 50 -33 92q-40 55 -108 65.5t-122 -30.5
q-54 -38 -66 -103t24 -118zM80 250q0 -91 64.5 -155.5t155.5 -64.5q73 0 129 42l-262 353q-87 -67 -87 -175z" />
    <glyph glyph-name="quotesingle" unicode="'" horiz-adv-x="130" 
d="M50 600v150h30v-150h-30z" />
    <glyph glyph-name="parenleft" unicode="(" horiz-adv-x="175" 
d="M50 45v660q0 31 22 53t53 22v-30q-19 0 -32 -13t-13 -32v-660q0 -19 13 -32t32 -13v-30q-31 0 -53 22t-22 53z" />
    <glyph glyph-name="parenright" unicode=")" horiz-adv-x="175" 
d="M125 705v-660q0 -31 -22 -53t-53 -22v30q19 0 32 13t13 32v660q0 19 -13 32t-32 13v30q31 0 53 -22t22 -53z" />
    <glyph glyph-name="asterisk" unicode="*" horiz-adv-x="396" 
d="M183 520l-112 -112l-21 21l127 127l-127 127l21 21l112 -112v158h30v-158l112 112l21 -21l-127 -127l127 -127l-21 -21l-112 112v-158h-30v158z" />
    <glyph glyph-name="plus" unicode="+" horiz-adv-x="490" 
d="M440 360h-180v-180h-30v180h-180v30h180v180h30v-180h180v-30z" />
    <glyph glyph-name="comma" unicode="," horiz-adv-x="130" 
d="M80 30v-130h-30v130h30z" />
    <glyph glyph-name="hyphen" unicode="-" horiz-adv-x="350" 
d="M50 316h250v-30h-250v30z" />
    <glyph glyph-name="period" unicode="." horiz-adv-x="130" 
d="M80 70v-70h-30v70h30z" />
    <glyph glyph-name="slash" unicode="/" horiz-adv-x="440" 
d="M390 750l-307 -750h-33l307 750h33z" />
    <glyph glyph-name="zero" unicode="0" horiz-adv-x="490" 
d="M245 750q81 0 138 -57t57 -138v-360q0 -81 -57 -138t-138 -57t-138 57t-57 138v360q0 81 57 138t138 57zM80 555v-360q0 -68 48.5 -116.5t116.5 -48.5t116.5 48.5t48.5 116.5v360q0 68 -48.5 116.5t-116.5 48.5t-116.5 -48.5t-48.5 -116.5z" />
    <glyph glyph-name="one" unicode="1" horiz-adv-x="200" 
d="M50 720v30h100v-750h-30v720h-70z" />
    <glyph glyph-name="two" unicode="2" horiz-adv-x="490" 
d="M439 0h-379v30l317 427q41 53 31 121.5t-66 108.5q-54 41 -122 30.5t-108 -65.5q-31 -42 -33 -92h-29q2 61 39 110q47 65 127 77t145 -37q64 -48 76 -127.5t-36 -143.5l-304 -409h342v-30z" />
    <glyph glyph-name="three" unicode="3" horiz-adv-x="490" 
d="M80 555h-30q0 81 57 138t138 57t138 -57t57 -138q0 -60 -33 -109t-87 -71q54 -23 87 -71.5t33 -108.5q0 -81 -57 -138t-138 -57t-138 57t-57 138h30q0 -68 48.5 -116.5t116.5 -48.5t116.5 48.5t48.5 116.5t-48.5 116.5t-116.5 48.5v30q70 0 117.5 48.5t47.5 116.5
t-48.5 116.5t-116.5 48.5t-116.5 -48.5t-48.5 -116.5z" />
    <glyph glyph-name="four" unicode="4" horiz-adv-x="500" 
d="M50 235v30l213 485h33l-214 -485h338v235h30v-500h-30v235h-370z" />
    <glyph glyph-name="five" unicode="5" horiz-adv-x="536" 
d="M50 406v344h436v-30h-406v-275q73 59 168.5 54t164.5 -72q73 -74 73 -177.5t-73 -176.5t-177 -73t-177 73l21 21q64 -64 156 -64t156 64q64 65 64 156t-64 156q-64 64 -156 64t-156 -64h-30z" />
    <glyph glyph-name="six" unicode="6" horiz-adv-x="617" 
d="M85 386l210 364h35l-159 -275q60 38 130 40t135 -35q92 -53 120.5 -156t-24.5 -195t-156.5 -120t-195.5 25q-93 53 -120.5 156.5t25.5 195.5zM111 371q-47 -82 -23 -173t106 -138q83 -47 174 -22.5t138 106.5t22.5 172.5t-107.5 137.5q-79 48 -170 24.5t-140 -107.5z" />
    <glyph glyph-name="seven" unicode="7" horiz-adv-x="490" 
d="M50 720v30h390v-30l-317 -720h-32l317 720h-358z" />
    <glyph glyph-name="eight" unicode="8" horiz-adv-x="615" 
d="M175 618q0 55 38.5 93.5t93.5 38.5t94 -38.5t39 -93.5q0 -73 -63 -113q82 -23 135 -91.5t53 -155.5q0 -106 -75.5 -182t-182.5 -76q-106 0 -181.5 75.5t-75.5 182.5q0 87 52.5 155.5t134.5 91.5q-62 40 -62 113zM80 258q0 -95 66.5 -161.5t160.5 -66.5q95 0 161.5 67
t66.5 161t-66.5 160.5t-161.5 66.5t-161 -66.5t-66 -160.5zM205 618q0 -43 29.5 -73t72.5 -30t73 30t30 73t-30 72.5t-73 29.5t-72.5 -29.5t-29.5 -72.5z" />
    <glyph glyph-name="nine" unicode="9" horiz-adv-x="617" 
d="M532 363l-210 -364h-35l159 275q-60 -38 -130 -40t-135 35q-92 53 -120.5 156t24.5 195t156.5 120t195.5 -25q93 -53 120.5 -156.5t-25.5 -195.5zM506 378q47 82 23 173t-106 138q-83 47 -174 22.5t-138 -106.5t-22.5 -172.5t107.5 -137.5q79 -48 170 -24.5t140 107.5z
" />
    <glyph glyph-name="colon" unicode=":" horiz-adv-x="130" 
d="M80 70v-70h-30v70h30zM80 390v-70h-30v70h30z" />
    <glyph glyph-name="semicolon" unicode=";" horiz-adv-x="130" 
d="M80 390v-70h-30v70h30zM80 30v-130h-30v130h30z" />
    <glyph glyph-name="less" unicode="&#x3c;" horiz-adv-x="371" 
d="M50 358v34l271 153v-35l-240 -135l240 -137v-35z" />
    <glyph glyph-name="equal" unicode="=" horiz-adv-x="490" 
d="M440 480h-390v30h390v-30zM440 238h-390v30h390v-30z" />
    <glyph glyph-name="greater" unicode="&#x3e;" horiz-adv-x="371" 
d="M321 392v-34l-271 -155v35l240 137l-240 135v35z" />
    <glyph glyph-name="question" unicode="?" horiz-adv-x="490" 
d="M215 250v80h30q68 0 116.5 48.5t48.5 116.5v60q0 68 -48.5 116.5t-116.5 48.5t-116.5 -48.5t-48.5 -116.5h-30q0 81 57 138t138 57t138 -57t57 -138v-60q0 -81 -57 -138t-138 -57v-50h-30zM245 100v-100h-30v100h30z" />
    <glyph glyph-name="at" unicode="@" horiz-adv-x="850" 
d="M50 250q0 155 110 265t265 110t265 -110t110 -265t-110 -265t-265 -110t-265 110t-110 265zM80 250q0 -142 101 -243.5t244 -101.5q124 0 220 80v146q-33 -60 -91.5 -95.5t-128.5 -35.5q-103 0 -176.5 73t-73.5 177t73.5 177t176.5 73t176.5 -73t73.5 -177v-237
q95 100 95 237q0 142 -101 243.5t-244 101.5t-244 -101.5t-101 -243.5zM205 250q0 -91 64.5 -155.5t155.5 -64.5t155.5 64.5t64.5 155.5t-64.5 155.5t-155.5 64.5t-155.5 -64.5t-64.5 -155.5z" />
    <glyph glyph-name="A" unicode="A" horiz-adv-x="864" 
d="M781 0l-82 185h-535l-82 -185h-32l332 750h100l332 -750h-33zM401 720l-224 -505h508l-223 505h-61z" />
    <glyph glyph-name="B" unicode="B" 
d="M50 0v750h305q81 0 138 -57t57 -138q0 -60 -33 -109t-87 -71q54 -23 87 -71.5t33 -108.5q0 -81 -57 -138t-138 -57h-305zM80 720v-330h275q70 0 117.5 48.5t47.5 116.5t-48.5 116.5t-116.5 48.5h-275zM80 360v-330h275q68 0 116.5 48.5t48.5 116.5q0 67 -47.5 116
t-117.5 49h-275z" />
    <glyph glyph-name="C" unicode="C" horiz-adv-x="741" 
d="M670 131l21 -21q-109 -110 -265 -110t-265 110q-110 110 -110 265t110 265q109 110 265 110t265 -110l-21 -21q-66 66 -155 89.5t-178 0t-155 -89.5q-100 -101 -100 -244t100 -244q66 -66 155 -89.5t178 0t155 89.5z" />
    <glyph glyph-name="D" unicode="D" horiz-adv-x="700" 
d="M50 0v750h225q155 0 265 -110t110 -265t-110 -265t-265 -110h-225zM80 720v-690h195q143 0 244 101t101 244t-101 244t-244 101h-195z" />
    <glyph glyph-name="E" unicode="E" horiz-adv-x="500" 
d="M50 0v750h400v-30h-370v-330h340v-30h-340v-330h370v-30h-400z" />
    <glyph glyph-name="F" unicode="F" horiz-adv-x="500" 
d="M50 0v750h400v-30h-370v-330h340v-30h-340v-360h-30z" />
    <glyph glyph-name="G" unicode="G" horiz-adv-x="741" 
d="M182 619q-100 -101 -100 -244t100 -244q98 -98 238 -100.5t241 91.5v178h30v-190q-109 -110 -265 -110t-265 110q-110 110 -110 265t110 265q109 110 265 110t265 -110l-21 -21q-66 66 -155 89.5t-178 0t-155 -89.5z" />
    <glyph glyph-name="H" unicode="H" horiz-adv-x="550" 
d="M50 0v750h30v-360h390v360h30v-750h-30v360h-390v-360h-30z" />
    <glyph glyph-name="I" unicode="I" horiz-adv-x="130" 
d="M50 0v750h30v-750h-30z" />
    <glyph glyph-name="J" unicode="J" horiz-adv-x="295" 
d="M215 195v555h30v-555q0 -81 -57 -138t-138 -57v30q68 0 116.5 48.5t48.5 116.5z" />
    <glyph glyph-name="K" unicode="K" horiz-adv-x="577" 
d="M527 750l-339 -375l338 -375h-40l-319 352l-84 -94l-3 2v-260h-30v750h30v-449l406 449h41z" />
    <glyph glyph-name="L" unicode="L" horiz-adv-x="500" 
d="M50 0v750h30v-720h370v-30h-400z" />
    <glyph glyph-name="M" unicode="M" horiz-adv-x="983" 
d="M933 750v-750h-30v720h-51l-343 -598h-36l-342 598h-51v-720h-30v750h100l341 -596l342 596h100z" />
    <glyph glyph-name="N" unicode="N" horiz-adv-x="781" 
d="M731 750v-750h-29l-567 720h-55v-720h-30v750h100l551 -701v701h30z" />
    <glyph glyph-name="O" unicode="O" horiz-adv-x="850" 
d="M50 375q0 155 110 265t265 110t265 -110t110 -265t-110 -265t-265 -110t-265 110t-110 265zM80 375q0 -143 101 -244t244 -101t244 101t101 244t-101 244t-244 101t-244 -101t-101 -244z" />
    <glyph glyph-name="P" unicode="P" horiz-adv-x="700" 
d="M50 0v750h325q114 0 194.5 -80.5t80.5 -194.5t-80.5 -194.5t-194.5 -80.5h-295v-200h-30zM80 720v-490h295q101 0 173 72t72 173t-72 173t-173 72h-295z" />
    <glyph glyph-name="Q" unicode="Q" horiz-adv-x="858" 
d="M787 -7l-106 106q-111 -102 -262 -99t-258 110q-110 110 -110 265t110 265q109 110 265 110t265 -110q107 -107 110 -258t-99 -262l106 -106zM182 131q98 -98 237 -101t240 90l-85 85l22 22l85 -85q93 101 90 240t-101 237q-66 66 -155 89.5t-178 0t-155 -89.5
q-100 -101 -100 -244t100 -244z" />
    <glyph glyph-name="R" unicode="R" horiz-adv-x="700" 
d="M375 200h-7l200 -200h-42l-200 200h-246v-200h-30v750h325q114 0 194.5 -80.5t80.5 -194.5t-80.5 -194.5t-194.5 -80.5zM80 720v-490h295q101 0 173 72t72 173t-72 173t-173 72h-295z" />
    <glyph glyph-name="S" unicode="S" horiz-adv-x="490" 
d="M50 0v30h195q68 0 116.5 48.5t48.5 116.5q0 49 -20 81.5t-51.5 48.5t-70 27.5t-77 24t-70 31t-51.5 56t-20 91.5q0 81 57 138t138 57h195v-30h-195q-68 0 -116.5 -48.5t-48.5 -116.5q0 -49 20 -81.5t51.5 -48.5t70 -27.5t77 -24t70 -31t51.5 -56t20 -91.5q0 -81 -57 -138
t-138 -57h-195z" />
    <glyph glyph-name="T" unicode="T" 
d="M50 720v30h500v-30h-235v-720h-30v720h-235z" />
    <glyph glyph-name="U" unicode="U" horiz-adv-x="650" 
d="M325 0q-114 0 -194.5 80.5t-80.5 194.5v475h30v-475q0 -101 72 -173t173 -72t173 72t72 173v475h30v-475q0 -114 -80.5 -194.5t-194.5 -80.5z" />
    <glyph glyph-name="V" unicode="V" horiz-adv-x="864" 
d="M82 750l319 -720h61l319 720h33l-332 -750h-100l-332 750h32z" />
    <glyph glyph-name="W" unicode="W" horiz-adv-x="1197" 
d="M82 750l319 -720h61l120 270h32l120 -270h61l319 720h33l-332 -750h-100l-117 263l-116 -263h-100l-332 750h32z" />
    <glyph glyph-name="X" unicode="X" horiz-adv-x="634" 
d="M299 375l-248 375h37l229 -347l230 347h37l-248 -375l248 -375h-37l-230 347l-230 -347h-37z" />
    <glyph glyph-name="Y" unicode="Y" horiz-adv-x="866" 
d="M448 200v-200h-30v200l-368 550h35l348 -520l347 520h36z" />
    <glyph glyph-name="Z" unicode="Z" 
d="M50 720v30h493v-30l-463 -629v-61h470v-30h-500v100l455 620h-455z" />
    <glyph glyph-name="bracketleft" unicode="[" horiz-adv-x="175" 
d="M80 750v-750h45v-30h-75v810h75v-30h-45z" />
    <glyph glyph-name="backslash" unicode="\" horiz-adv-x="440" 
d="M357 0l-307 750h33l307 -750h-33z" />
    <glyph glyph-name="bracketright" unicode="]" horiz-adv-x="175" 
d="M95 0v750h-45v30h75v-810h-75v30h45z" />
    <glyph glyph-name="underscore" unicode="_" horiz-adv-x="480" 
d="M430 -40h-380v30h380v-30z" />
    <glyph glyph-name="grave" unicode="`" horiz-adv-x="246" 
d="M181 650l-131 74l15 26l131 -74z" />
    <glyph glyph-name="a" unicode="a" 
d="M520 0v131q-33 -60 -91.5 -95.5t-128.5 -35.5q-104 0 -177 73t-73 177t73 177t177 73t177 -73t73 -177v-250h-30zM80 250q0 -91 64.5 -155.5t155.5 -64.5t155.5 64.5t64.5 155.5t-64.5 155.5t-155.5 64.5t-155.5 -64.5t-64.5 -155.5z" />
    <glyph glyph-name="b" unicode="b" 
d="M50 0v750h30v-381q32 59 91 95t129 36q104 0 177 -73t73 -177t-73 -177t-177 -73q-70 0 -129 36t-91 95v-131h-30zM80 250q0 -91 64.5 -155.5t155.5 -64.5t155.5 64.5t64.5 155.5t-64.5 155.5t-155.5 64.5q-90 0 -155 -63.5t-65 -156.5z" />
    <glyph glyph-name="c" unicode="c" horiz-adv-x="527" 
d="M456 94l21 -21q-73 -73 -177 -73t-177 73t-73 176.5t73 177.5q73 73 177 73t177 -73l-21 -21q-64 64 -156 64t-156 -64t-64 -156t64 -156t156 -64t156 64z" />
    <glyph glyph-name="d" unicode="d" 
d="M550 750v-750h-30v131q-32 -59 -91 -95t-129 -36q-104 0 -177 73t-73 177t73 177t177 73q70 0 129 -36t91 -95v381h30zM520 250q0 93 -65 156.5t-155 63.5q-91 0 -155.5 -64.5t-64.5 -155.5t64.5 -155.5t155.5 -64.5t155.5 64.5t64.5 155.5z" />
    <glyph glyph-name="e" unicode="e" 
d="M550 235h-470q6 -86 69.5 -145.5t150.5 -59.5q91 0 155 64l22 -20q-72 -74 -177 -74q-104 0 -177 73t-73 177t73 177t177 73t177 -73t73 -177v-15zM300 470q-87 0 -150.5 -59.5t-69.5 -145.5h439q-6 86 -69 145.5t-150 59.5z" />
    <glyph glyph-name="f" unicode="f" horiz-adv-x="350" 
d="M80 235v-235h-30v500q0 104 73 177t177 73v-30q-91 0 -155.5 -64.5t-64.5 -155.5v-235h220v-30h-220z" />
    <glyph glyph-name="g" unicode="g" 
d="M122 -175l21 21q64 -66 157 -66q91 0 155.5 64.5t64.5 155.5v131q-32 -59 -91 -95t-129 -36q-104 0 -177 73t-73 177t73 177t177 73q70 0 129 -36t91 -95v131h30v-500q0 -104 -73 -177t-177 -73q-105 0 -178 75zM520 250q0 91 -64.5 155.5t-155.5 64.5t-155.5 -64.5
t-64.5 -155.5t64.5 -155.5t155.5 -64.5q90 0 155 63.5t65 156.5z" />
    <glyph glyph-name="h" unicode="h" 
d="M520 0v250q0 91 -64.5 155.5t-155.5 64.5q-89 0 -154.5 -62t-65.5 -149v-259h-30v750h30v-381q32 59 91 95t129 36q104 0 177 -73t73 -177v-250h-30z" />
    <glyph glyph-name="i" unicode="i" horiz-adv-x="130" 
d="M50 0v500h30v-500h-30zM80 750v-100h-30v100h30z" />
    <glyph glyph-name="j" unicode="j" horiz-adv-x="130" 
d="M50 -55v555h30v-555q0 -81 -57 -138t-138 -57v30q68 0 116.5 48.5t48.5 116.5zM80 750v-100h-30v100h30z" />
    <glyph glyph-name="k" unicode="k" horiz-adv-x="494" 
d="M50 0v750h30v-592l287 342h39l-210 -250l248 -250h-43l-225 226l-96 -115v-111h-30z" />
    <glyph glyph-name="l" unicode="l" horiz-adv-x="130" 
d="M50 0v750h30v-750h-30z" />
    <glyph glyph-name="m" unicode="m" horiz-adv-x="850" 
d="M770 0v250q0 91 -48.5 155.5t-116.5 64.5t-116.5 -63.5t-48.5 -156.5v-250h-30v250q0 93 -49 156.5t-116 63.5t-116 -66t-49 -154v-250h-30v500h30v-117q26 54 69.5 85.5t95.5 31.5q60 0 108.5 -42.5t71.5 -111.5q22 69 71 111.5t109 42.5q81 0 138 -73t57 -177v-250h-30
z" />
    <glyph glyph-name="n" unicode="n" 
d="M520 0v250q0 91 -64.5 155.5t-155.5 64.5q-88 0 -154 -66t-66 -154v-250h-30v500h30v-131q32 59 91 95t129 36q104 0 177 -73t73 -177v-250h-30z" />
    <glyph glyph-name="o" unicode="o" 
d="M50 250q0 104 73 177t177 73t177 -73t73 -177t-73 -177t-177 -73t-177 73t-73 177zM80 250q0 -91 64.5 -155.5t155.5 -64.5t155.5 64.5t64.5 155.5t-64.5 155.5t-155.5 64.5t-155.5 -64.5t-64.5 -155.5z" />
    <glyph glyph-name="p" unicode="p" 
d="M50 -250v750h30v-131q32 59 91 95t129 36q104 0 177 -73t73 -177t-73 -177t-177 -73q-70 0 -129 36t-91 95v-381h-30zM80 250q0 -91 64.5 -155.5t155.5 -64.5t155.5 64.5t64.5 155.5t-64.5 155.5t-155.5 64.5q-90 0 -155 -63.5t-65 -156.5z" />
    <glyph glyph-name="q" unicode="q" 
d="M550 500v-750h-30v381q-32 -59 -91 -95t-129 -36q-104 0 -177 73t-73 177t73 177t177 73q70 0 129 -36t91 -95v131h30zM520 250q0 93 -65 156.5t-155 63.5q-91 0 -155.5 -64.5t-64.5 -155.5t64.5 -155.5t155.5 -64.5t155.5 64.5t64.5 155.5z" />
    <glyph glyph-name="r" unicode="r" horiz-adv-x="350" 
d="M80 250v-250h-30v500h30v-131q32 59 91 95t129 36v-30q-91 0 -155.5 -64.5t-64.5 -155.5z" />
    <glyph glyph-name="s" unicode="s" horiz-adv-x="365" 
d="M50 0v30h132q43 0 73 29.5t30 72.5q0 41 -24 64t-58.5 33t-69.5 21t-59 40t-24 78q0 55 39 93.5t94 38.5h132v-30h-132q-43 0 -73 -29.5t-30 -72.5q0 -41 24 -64t59 -33t69.5 -21t58.5 -39.5t24 -78.5q0 -55 -39 -93.5t-94 -38.5h-132z" />
    <glyph glyph-name="t" unicode="t" horiz-adv-x="365" 
d="M50 0v750h30v-250h235v-30h-235v-470h-30z" />
    <glyph glyph-name="u" unicode="u" 
d="M520 250v250h30v-250q0 -104 -73 -177t-177 -73t-177 73t-73 177v250h30v-250q0 -91 64.5 -155.5t155.5 -64.5t155.5 64.5t64.5 155.5z" />
    <glyph glyph-name="v" unicode="v" horiz-adv-x="577" 
d="M272 0l-222 500h32l206 -465l207 465h32l-223 -500h-32z" />
    <glyph glyph-name="w" unicode="w" horiz-adv-x="850" 
d="M770 250v250h30v-250q0 -104 -57 -177t-138 -73q-60 0 -109 42.5t-71 111.5q-23 -69 -71.5 -111.5t-108.5 -42.5q-81 0 -138 73t-57 177v250h30v-250q0 -91 48.5 -155.5t116.5 -64.5q67 0 116 63.5t49 156.5v250h30v-250q0 -93 48.5 -156.5t116.5 -63.5t116.5 64.5
t48.5 155.5z" />
    <glyph glyph-name="x" unicode="x" horiz-adv-x="468" 
d="M50 0l166 250l-166 250h37l147 -222l147 222h37l-165 -250l165 -250h-37l-147 222l-147 -222h-37z" />
    <glyph glyph-name="y" unicode="y" horiz-adv-x="577" 
d="M527 500l-335 -750h-31l111 250l-222 500h32l206 -465l207 465h32z" />
    <glyph glyph-name="z" unicode="z" horiz-adv-x="490" 
d="M397 470h-347v30h386v-30l-349 -440h353v-30h-390v30z" />
    <glyph glyph-name="braceleft" unicode="{" horiz-adv-x="225" 
d="M50 360v30h50v315q0 31 22 53t53 22v-30q-19 0 -32 -13t-13 -32v-660q0 -19 13 -32t32 -13v-30q-31 0 -53 22t-22 53v315h-50z" />
    <glyph glyph-name="bar" unicode="|" horiz-adv-x="130" 
d="M80 -30h-30v810h30v-810z" />
    <glyph glyph-name="braceright" unicode="}" horiz-adv-x="225" 
d="M175 390v-30h-50v-315q0 -31 -22 -53t-53 -22v30q19 0 32 13t13 32v660q0 19 -13 32t-32 13v30q31 0 53 -22t22 -53v-315h50z" />
    <glyph glyph-name="exclamdown" unicode="&#xa1;" horiz-adv-x="130" 
d="M50 -235v500h30v-500h-30zM80 515v-100h-30v100h30z" />
    <glyph glyph-name="cent" unicode="&#xa2;" horiz-adv-x="527" 
d="M285 -50v51q-95 5 -162 72q-73 73 -73 176.5t73 177.5q67 66 162 72v51h30v-51q95 -6 162 -72l-21 -21q-58 56 -141 63v-438q83 5 141 63l21 -21q-67 -67 -162 -72v-51h-30zM144 94q58 -58 141 -63v438q-83 -6 -141 -63q-64 -64 -64 -156t64 -156z" />
    <glyph glyph-name="brokenbar" unicode="&#xa6;" horiz-adv-x="130" 
d="M80 780v-355h-30v355h30zM80 -30h-30v355h30v-355z" />
    <glyph glyph-name="dieresis" unicode="&#xa8;" horiz-adv-x="300" 
d="M80 750v-70h-30v70h30zM250 750v-70h-30v70h30z" />
    <glyph glyph-name="plusminus" unicode="&#xb1;" horiz-adv-x="490" 
d="M440 360h-180v-180h-30v180h-180v30h180v180h30v-180h180v-30zM440 120h-390v30h390v-30z" />
    <glyph glyph-name="acute" unicode="&#xb4;" horiz-adv-x="246" 
d="M196 724l-131 -74l-15 26l131 74z" />
    <glyph glyph-name="mu" unicode="&#xb5;" 
d="M50 -250v750h30v-250q0 -91 64.5 -155.5t155.5 -64.5q88 0 152 61.5t68 149.5v259h30v-500h-30v131q-33 -60 -91.5 -95.5t-128.5 -35.5t-129 36t-91 95v-381h-30z" />
    <glyph glyph-name="paragraph" unicode="&#xb6;" 
d="M420 -250v970h-105v-970h-30v500q-99 6 -167 78.5t-68 171.5q0 100 68.5 172.5t166.5 77.5h265v-30h-100v-970h-30z" />
    <glyph glyph-name="periodcentered" unicode="&#xb7;" horiz-adv-x="130" 
d="M80 410v-70h-30v70h30z" />
    <glyph glyph-name="cedilla" unicode="&#xb8;" horiz-adv-x="163" 
d="M50 -100l32 120h31l-42 -156z" />
    <glyph glyph-name="questiondown" unicode="&#xbf;" horiz-adv-x="490" 
d="M275 250v-80h-30q-68 0 -116.5 -48.5t-48.5 -116.5v-60q0 -68 48.5 -116.5t116.5 -48.5t116.5 48.5t48.5 116.5h30q0 -81 -57 -138t-138 -57t-138 57t-57 138v60q0 81 57 138t138 57v50h30zM245 400v100h30v-100h-30z" />
    <glyph glyph-name="Agrave" unicode="&#xc0;" horiz-adv-x="864" 
d="M781 0l-82 185h-535l-82 -185h-32l332 750h100l332 -750h-33zM401 720l-224 -505h508l-223 505h-61zM490 770l-131 74l15 26l131 -74z" />
    <glyph glyph-name="Aacute" unicode="&#xc1;" horiz-adv-x="864" 
d="M781 0l-82 185h-535l-82 -185h-32l332 750h100l332 -750h-33zM401 720l-224 -505h508l-223 505h-61zM505 844l-131 -74l-15 26l131 74z" />
    <glyph glyph-name="Acircumflex" unicode="&#xc2;" horiz-adv-x="864" 
d="M781 0l-82 185h-535l-82 -185h-32l332 750h100l332 -750h-33zM401 720l-224 -505h508l-223 505h-61zM432 900l150 -150h-42l-108 108l-108 -108h-42z" />
    <glyph glyph-name="Atilde" unicode="&#xc3;" horiz-adv-x="864" 
d="M781 0l-82 185h-535l-82 -185h-32l332 750h100l332 -750h-33zM401 720l-224 -505h508l-223 505h-61zM501 770l-130 35l-16 -17l-33 9l41 41l129 -35l17 17l33 -9z" />
    <glyph glyph-name="Adieresis" unicode="&#xc4;" horiz-adv-x="864" 
d="M781 0l-82 185h-535l-82 -185h-32l332 750h100l332 -750h-33zM401 720l-224 -505h508l-223 505h-61zM362 840v-70h-30v70h30zM532 840v-70h-30v70h30z" />
    <glyph glyph-name="Aring" unicode="&#xc5;" horiz-adv-x="864" 
d="M781 0l-82 185h-535l-82 -185h-32l332 750h100l332 -750h-33zM401 720l-224 -505h508l-223 505h-61zM357 845q0 31 22 53t53 22t53 -22t22 -53t-22 -53t-53 -22t-53 22t-22 53zM387 845q0 -19 13 -32t32 -13t32 13t13 32t-13 32t-32 13t-32 -13t-13 -32z" />
    <glyph glyph-name="Ccedilla" unicode="&#xc7;" horiz-adv-x="741" 
d="M339 -100l28 104q-121 19 -206 106q-110 110 -110 265t110 265q109 110 265 110t265 -110l-21 -21q-66 66 -155 89.5t-178 0t-155 -89.5q-100 -101 -100 -244t100 -244q66 -66 155 -89.5t178 0t155 89.5l21 -21q-60 -60 -137 -87.5t-157 -21.5l-37 -137z" />
    <glyph glyph-name="Egrave" unicode="&#xc8;" horiz-adv-x="500" 
d="M50 0v750h400v-30h-370v-330h340v-30h-340v-330h370v-30h-400zM308 770l-131 74l15 26l131 -74z" />
    <glyph glyph-name="Eacute" unicode="&#xc9;" horiz-adv-x="500" 
d="M50 0v750h400v-30h-370v-330h340v-30h-340v-330h370v-30h-400zM323 844l-131 -74l-15 26l131 74z" />
    <glyph glyph-name="Ecircumflex" unicode="&#xca;" horiz-adv-x="500" 
d="M50 0v750h400v-30h-370v-330h340v-30h-340v-330h370v-30h-400zM250 920l150 -150h-42l-108 108l-108 -108h-42z" />
    <glyph glyph-name="Edieresis" unicode="&#xcb;" horiz-adv-x="500" 
d="M50 0v750h400v-30h-370v-330h340v-30h-340v-330h370v-30h-400zM180 840v-70h-30v70h30zM350 840v-70h-30v70h30z" />
    <glyph glyph-name="Igrave" unicode="&#xcc;" horiz-adv-x="246" 
d="M108 0v750h30v-750h-30zM181 770l-131 74l15 26l131 -74z" />
    <glyph glyph-name="Iacute" unicode="&#xcd;" horiz-adv-x="246" 
d="M108 0v750h30v-750h-30zM196 844l-131 -74l-15 26l131 74z" />
    <glyph glyph-name="Icircumflex" unicode="&#xce;" horiz-adv-x="400" 
d="M185 0v750h30v-750h-30zM200 920l150 -150h-42l-108 108l-108 -108h-42z" />
    <glyph glyph-name="Idieresis" unicode="&#xcf;" horiz-adv-x="230" 
d="M80 840v-70h-30v70h30zM180 840v-70h-30v70h30zM100 0v750h30v-750h-30z" />
    <glyph glyph-name="Eth" unicode="&#xd0;" horiz-adv-x="785" 
d="M50 390h85v360h225q155 0 265 -110t110 -265t-110 -265t-265 -110h-225v360h-85v30zM165 720v-330h85v-30h-85v-330h195q142 0 243.5 101t101.5 244t-101.5 244t-243.5 101h-195z" />
    <glyph glyph-name="Ntilde" unicode="&#xd1;" horiz-adv-x="781" 
d="M731 750v-750h-29l-567 720h-55v-720h-30v750h100l551 -701v701h30zM459 770l-130 35l-16 -17l-33 9l41 41l129 -35l17 17l33 -9z" />
    <glyph glyph-name="Ograve" unicode="&#xd2;" horiz-adv-x="850" 
d="M50 375q0 155 110 265t265 110t265 -110t110 -265t-110 -265t-265 -110t-265 110t-110 265zM80 375q0 -143 101 -244t244 -101t244 101t101 244t-101 244t-244 101t-244 -101t-101 -244zM483 770l-131 74l15 26l131 -74z" />
    <glyph glyph-name="Oacute" unicode="&#xd3;" horiz-adv-x="850" 
d="M50 375q0 155 110 265t265 110t265 -110t110 -265t-110 -265t-265 -110t-265 110t-110 265zM80 375q0 -143 101 -244t244 -101t244 101t101 244t-101 244t-244 101t-244 -101t-101 -244zM498 844l-131 -74l-15 26l131 74z" />
    <glyph glyph-name="Ocircumflex" unicode="&#xd4;" horiz-adv-x="850" 
d="M50 375q0 155 110 265t265 110t265 -110t110 -265t-110 -265t-265 -110t-265 110t-110 265zM80 375q0 -143 101 -244t244 -101t244 101t101 244t-101 244t-244 101t-244 -101t-101 -244zM425 900l150 -150h-42l-108 108l-108 -108h-42z" />
    <glyph glyph-name="Otilde" unicode="&#xd5;" horiz-adv-x="850" 
d="M50 375q0 155 110 265t265 110t265 -110t110 -265t-110 -265t-265 -110t-265 110t-110 265zM80 375q0 -143 101 -244t244 -101t244 101t101 244t-101 244t-244 101t-244 -101t-101 -244zM494 770l-130 35l-16 -17l-33 9l41 41l129 -35l17 17l33 -9z" />
    <glyph glyph-name="Odieresis" unicode="&#xd6;" horiz-adv-x="850" 
d="M50 375q0 155 110 265t265 110t265 -110t110 -265t-110 -265t-265 -110t-265 110t-110 265zM80 375q0 -143 101 -244t244 -101t244 101t101 244t-101 244t-244 101t-244 -101t-101 -244zM355 840v-70h-30v70h30zM525 840v-70h-30v70h30z" />
    <glyph glyph-name="multiply" unicode="&#xd7;" horiz-adv-x="396" 
d="M346 502l-127 -127l127 -127l-21 -21l-127 127l-127 -127l-21 21l127 127l-127 127l21 21l127 -127l127 127z" />
    <glyph glyph-name="Oslash" unicode="&#xd8;" horiz-adv-x="850" 
d="M50 21l99 99q-99 109 -99 255q0 155 110 265t265 110q146 0 254 -100l100 100l21 -21l-100 -100q100 -108 100 -254q0 -155 -110 -265t-265 -110q-146 0 -255 99l-99 -99zM770 375q0 132 -91 233l-487 -487q97 -91 233 -91q143 0 244 101t101 244zM80 375q0 -136 91 -233
l487 487q-101 91 -233 91q-143 0 -244 -101t-101 -244z" />
    <glyph glyph-name="Ugrave" unicode="&#xd9;" horiz-adv-x="650" 
d="M325 0q-114 0 -194.5 80.5t-80.5 194.5v475h30v-475q0 -101 72 -173t173 -72t173 72t72 173v475h30v-475q0 -114 -80.5 -194.5t-194.5 -80.5zM383 750l-131 74l15 26l131 -74z" />
    <glyph glyph-name="Uacute" unicode="&#xda;" horiz-adv-x="650" 
d="M325 0q-114 0 -194.5 80.5t-80.5 194.5v475h30v-475q0 -101 72 -173t173 -72t173 72t72 173v475h30v-475q0 -114 -80.5 -194.5t-194.5 -80.5zM398 824l-131 -74l-15 26l131 74z" />
    <glyph glyph-name="Ucircumflex" unicode="&#xdb;" horiz-adv-x="650" 
d="M325 0q-114 0 -194.5 80.5t-80.5 194.5v475h30v-475q0 -101 72 -173t173 -72t173 72t72 173v475h30v-475q0 -114 -80.5 -194.5t-194.5 -80.5zM325 900l150 -150h-42l-108 108l-108 -108h-42z" />
    <glyph glyph-name="Udieresis" unicode="&#xdc;" horiz-adv-x="650" 
d="M325 0q-114 0 -194.5 80.5t-80.5 194.5v475h30v-475q0 -101 72 -173t173 -72t173 72t72 173v475h30v-475q0 -114 -80.5 -194.5t-194.5 -80.5zM255 820v-70h-30v70h30zM425 820v-70h-30v70h30z" />
    <glyph glyph-name="Yacute" unicode="&#xdd;" horiz-adv-x="866" 
d="M448 200v-200h-30v200l-368 550h35l348 -520l347 520h36zM506 824l-131 -74l-15 26l131 74z" />
    <glyph glyph-name="Thorn" unicode="&#xde;" horiz-adv-x="490" 
d="M50 0v750h30v-180h165q81 0 138 -57t57 -138t-57 -138t-138 -57h-165v-180h-30zM245 540h-165v-330h165q68 0 116.5 48.5t48.5 116.5t-48.5 116.5t-116.5 48.5z" />
    <glyph glyph-name="germandbls" unicode="&#xdf;" horiz-adv-x="540" 
d="M50 588v30h50q0 55 38.5 93.5t93.5 38.5t94 -38.5t39 -93.5q0 -73 -63 -113q82 -23 135 -91.5t53 -155.5q0 -106 -76 -182t-182 -76v30q94 0 161 67t67 161t-66.5 160.5t-161.5 66.5v30q43 0 73 30t30 73t-30 72.5t-73 29.5t-72.5 -29.5t-29.5 -72.5v-618h-30v588h-50z
" />
    <glyph glyph-name="agrave" unicode="&#xe0;" 
d="M520 0v131q-33 -60 -91.5 -95.5t-128.5 -35.5q-104 0 -177 73t-73 177t73 177t177 73t177 -73t73 -177v-250h-30zM80 250q0 -91 64.5 -155.5t155.5 -64.5t155.5 64.5t64.5 155.5t-64.5 155.5t-155.5 64.5t-155.5 -64.5t-64.5 -155.5zM358 520l-131 74l15 26l131 -74z" />
    <glyph glyph-name="aacute" unicode="&#xe1;" 
d="M520 0v131q-33 -60 -91.5 -95.5t-128.5 -35.5q-104 0 -177 73t-73 177t73 177t177 73t177 -73t73 -177v-250h-30zM80 250q0 -91 64.5 -155.5t155.5 -64.5t155.5 64.5t64.5 155.5t-64.5 155.5t-155.5 64.5t-155.5 -64.5t-64.5 -155.5zM373 594l-131 -74l-15 26l131 74z
" />
    <glyph glyph-name="acircumflex" unicode="&#xe2;" 
d="M520 0v131q-33 -60 -91.5 -95.5t-128.5 -35.5q-104 0 -177 73t-73 177t73 177t177 73t177 -73t73 -177v-250h-30zM80 250q0 -91 64.5 -155.5t155.5 -64.5t155.5 64.5t64.5 155.5t-64.5 155.5t-155.5 64.5t-155.5 -64.5t-64.5 -155.5zM300 670l150 -150h-42l-108 108
l-108 -108h-42z" />
    <glyph glyph-name="atilde" unicode="&#xe3;" 
d="M520 0v131q-33 -60 -91.5 -95.5t-128.5 -35.5q-104 0 -177 73t-73 177t73 177t177 73t177 -73t73 -177v-250h-30zM80 250q0 -91 64.5 -155.5t155.5 -64.5t155.5 64.5t64.5 155.5t-64.5 155.5t-155.5 64.5t-155.5 -64.5t-64.5 -155.5zM369 520l-130 35l-16 -17l-33 9
l41 41l129 -35l17 17l33 -9z" />
    <glyph glyph-name="adieresis" unicode="&#xe4;" 
d="M520 0v131q-33 -60 -91.5 -95.5t-128.5 -35.5q-104 0 -177 73t-73 177t73 177t177 73t177 -73t73 -177v-250h-30zM80 250q0 -91 64.5 -155.5t155.5 -64.5t155.5 64.5t64.5 155.5t-64.5 155.5t-155.5 64.5t-155.5 -64.5t-64.5 -155.5zM230 600v-70h-30v70h30zM400 600v-70
h-30v70h30z" />
    <glyph glyph-name="aring" unicode="&#xe5;" 
d="M520 0v131q-33 -60 -91.5 -95.5t-128.5 -35.5q-104 0 -177 73t-73 177t73 177t177 73t177 -73t73 -177v-250h-30zM80 250q0 -91 64.5 -155.5t155.5 -64.5t155.5 64.5t64.5 155.5t-64.5 155.5t-155.5 64.5t-155.5 -64.5t-64.5 -155.5zM225 595q0 31 22 53t53 22t53 -22
t22 -53t-22 -53t-53 -22t-53 22t-22 53zM255 595q0 -19 13 -32t32 -13t32 13t13 32t-13 32t-32 13t-32 -13t-13 -32z" />
    <glyph glyph-name="ccedilla" unicode="&#xe7;" horiz-adv-x="527" 
d="M232 -100l27 103q-80 13 -136 70q-73 73 -73 176.5t73 177.5q73 73 177 73t177 -73l-21 -21q-64 64 -156 64t-156 -64t-64 -156t64 -156t156 -64t156 64l21 -21q-78 -76 -187 -73l-37 -136z" />
    <glyph glyph-name="egrave" unicode="&#xe8;" 
d="M550 235h-470q6 -86 69.5 -145.5t150.5 -59.5q91 0 155 64l22 -20q-72 -74 -177 -74q-104 0 -177 73t-73 177t73 177t177 73t177 -73t73 -177v-15zM300 470q-87 0 -150.5 -59.5t-69.5 -145.5h439q-6 86 -69 145.5t-150 59.5zM358 520l-131 74l15 26l131 -74z" />
    <glyph glyph-name="eacute" unicode="&#xe9;" 
d="M550 235h-470q6 -86 69.5 -145.5t150.5 -59.5q91 0 155 64l22 -20q-72 -74 -177 -74q-104 0 -177 73t-73 177t73 177t177 73t177 -73t73 -177v-15zM300 470q-87 0 -150.5 -59.5t-69.5 -145.5h439q-6 86 -69 145.5t-150 59.5zM373 594l-131 -74l-15 26l131 74z" />
    <glyph glyph-name="ecircumflex" unicode="&#xea;" 
d="M550 235h-470q6 -86 69.5 -145.5t150.5 -59.5q91 0 155 64l22 -20q-72 -74 -177 -74q-104 0 -177 73t-73 177t73 177t177 73t177 -73t73 -177v-15zM300 470q-87 0 -150.5 -59.5t-69.5 -145.5h439q-6 86 -69 145.5t-150 59.5zM300 670l150 -150h-42l-108 108l-108 -108
h-42z" />
    <glyph glyph-name="edieresis" unicode="&#xeb;" 
d="M550 235h-470q6 -86 69.5 -145.5t150.5 -59.5q91 0 155 64l22 -20q-72 -74 -177 -74q-104 0 -177 73t-73 177t73 177t177 73t177 -73t73 -177v-15zM300 470q-87 0 -150.5 -59.5t-69.5 -145.5h439q-6 86 -69 145.5t-150 59.5zM230 590v-70h-30v70h30zM400 590v-70h-30v70
h30z" />
    <glyph glyph-name="igrave" unicode="&#xec;" horiz-adv-x="246" 
d="M108 0v500h30v-500h-30zM181 520l-131 74l15 26l131 -74z" />
    <glyph glyph-name="iacute" unicode="&#xed;" horiz-adv-x="246" 
d="M108 0v500h30v-500h-30zM196 594l-131 -74l-15 26l131 74z" />
    <glyph glyph-name="icircumflex" unicode="&#xee;" horiz-adv-x="400" 
d="M215 500v-500h-30v500h30zM50 500l150 150l150 -150h-42l-108 108l-108 -108h-42z" />
    <glyph glyph-name="idieresis" unicode="&#xef;" horiz-adv-x="230" 
d="M100 0v500h30v-500h-30zM80 590v-70h-30v70h30zM180 590v-70h-30v70h30z" />
    <glyph glyph-name="eth" unicode="&#xf0;" horiz-adv-x="617" 
d="M402 750h35l-58 -100l153 -264q53 -92 25.5 -195.5t-120.5 -156.5q-92 -53 -195.5 -25t-156.5 120t-24.5 195t120.5 156q65 37 135 35t130 -40l-84 145l-40 -70h-35l57 100l-57 100h35l40 -70zM506 371q-49 84 -140 107.5t-170 -24.5q-83 -47 -107.5 -137.5t22.5 -172.5
t138 -106.5t174 22.5q82 47 106 138t-23 173z" />
    <glyph glyph-name="ntilde" unicode="&#xf1;" 
d="M520 0v250q0 91 -64.5 155.5t-155.5 64.5q-88 0 -154 -66t-66 -154v-250h-30v500h30v-131q32 59 91 95t129 36q104 0 177 -73t73 -177v-250h-30zM369 520l-130 35l-16 -17l-33 9l41 41l129 -35l17 17l33 -9z" />
    <glyph glyph-name="ograve" unicode="&#xf2;" 
d="M50 250q0 104 73 177t177 73t177 -73t73 -177t-73 -177t-177 -73t-177 73t-73 177zM80 250q0 -91 64.5 -155.5t155.5 -64.5t155.5 64.5t64.5 155.5t-64.5 155.5t-155.5 64.5t-155.5 -64.5t-64.5 -155.5zM358 520l-131 74l15 26l131 -74z" />
    <glyph glyph-name="oacute" unicode="&#xf3;" 
d="M50 250q0 104 73 177t177 73t177 -73t73 -177t-73 -177t-177 -73t-177 73t-73 177zM80 250q0 -91 64.5 -155.5t155.5 -64.5t155.5 64.5t64.5 155.5t-64.5 155.5t-155.5 64.5t-155.5 -64.5t-64.5 -155.5zM373 594l-131 -74l-15 26l131 74z" />
    <glyph glyph-name="ocircumflex" unicode="&#xf4;" 
d="M50 250q0 104 73 177t177 73t177 -73t73 -177t-73 -177t-177 -73t-177 73t-73 177zM80 250q0 -91 64.5 -155.5t155.5 -64.5t155.5 64.5t64.5 155.5t-64.5 155.5t-155.5 64.5t-155.5 -64.5t-64.5 -155.5zM300 650l150 -150h-42l-108 108l-108 -108h-42z" />
    <glyph glyph-name="otilde" unicode="&#xf5;" 
d="M50 250q0 104 73 177t177 73t177 -73t73 -177t-73 -177t-177 -73t-177 73t-73 177zM80 250q0 -91 64.5 -155.5t155.5 -64.5t155.5 64.5t64.5 155.5t-64.5 155.5t-155.5 64.5t-155.5 -64.5t-64.5 -155.5zM369 520l-130 35l-16 -17l-33 9l41 41l129 -35l17 17l33 -9z" />
    <glyph glyph-name="odieresis" unicode="&#xf6;" 
d="M50 250q0 104 73 177t177 73t177 -73t73 -177t-73 -177t-177 -73t-177 73t-73 177zM80 250q0 -91 64.5 -155.5t155.5 -64.5t155.5 64.5t64.5 155.5t-64.5 155.5t-155.5 64.5t-155.5 -64.5t-64.5 -155.5zM230 590v-70h-30v70h30zM400 590v-70h-30v70h30z" />
    <glyph glyph-name="divide" unicode="&#xf7;" horiz-adv-x="490" 
d="M440 360h-390v30h390v-30zM260 570v-70h-30v70h30zM260 180h-30v70h30v-70z" />
    <glyph glyph-name="oslash" unicode="&#xf8;" 
d="M50 21l63 63q-63 69 -63 166q0 104 73 177t177 73q95 0 166 -63l63 63l21 -21l-63 -63q63 -71 63 -166q0 -104 -73 -177t-177 -73q-97 0 -166 63l-63 -63zM520 250q0 83 -55 144l-310 -310q62 -54 145 -54q91 0 155.5 64.5t64.5 155.5zM80 250q0 -83 54 -145l310 310
q-61 55 -144 55q-91 0 -155.5 -64.5t-64.5 -155.5z" />
    <glyph glyph-name="ugrave" unicode="&#xf9;" 
d="M520 250v250h30v-250q0 -104 -73 -177t-177 -73t-177 73t-73 177v250h30v-250q0 -91 64.5 -155.5t155.5 -64.5t155.5 64.5t64.5 155.5zM358 500l-131 74l15 26l131 -74z" />
    <glyph glyph-name="uacute" unicode="&#xfa;" 
d="M520 250v250h30v-250q0 -104 -73 -177t-177 -73t-177 73t-73 177v250h30v-250q0 -91 64.5 -155.5t155.5 -64.5t155.5 64.5t64.5 155.5zM373 574l-131 -74l-15 26l131 74z" />
    <glyph glyph-name="ucircumflex" unicode="&#xfb;" 
d="M520 250v250h30v-250q0 -104 -73 -177t-177 -73t-177 73t-73 177v250h30v-250q0 -91 64.5 -155.5t155.5 -64.5t155.5 64.5t64.5 155.5zM300 650l150 -150h-42l-108 108l-108 -108h-42z" />
    <glyph glyph-name="udieresis" unicode="&#xfc;" 
d="M520 250v250h30v-250q0 -104 -73 -177t-177 -73t-177 73t-73 177v250h30v-250q0 -91 64.5 -155.5t155.5 -64.5t155.5 64.5t64.5 155.5zM230 570v-70h-30v70h30zM400 570v-70h-30v70h30z" />
    <glyph glyph-name="yacute" unicode="&#xfd;" horiz-adv-x="577" 
d="M527 500l-335 -750h-31l111 250l-222 500h32l206 -465l207 465h32zM361 574l-131 -74l-15 26l131 74z" />
    <glyph glyph-name="thorn" unicode="&#xfe;" 
d="M50 -250v1000h30v-381q32 59 91 95t129 36q104 0 177 -73t73 -177t-73 -177t-177 -73q-70 0 -129 36t-91 95v-381h-30zM80 250q0 -91 64.5 -155.5t155.5 -64.5t155.5 64.5t64.5 155.5t-64.5 155.5t-155.5 64.5q-90 0 -155 -63.5t-65 -156.5z" />
    <glyph glyph-name="ydieresis" unicode="&#xff;" horiz-adv-x="577" 
d="M527 500l-335 -750h-31l111 250l-222 500h32l206 -465l207 465h32zM218 570v-70h-30v70h30zM388 570v-70h-30v70h30z" />
    <glyph glyph-name="Lslash" unicode="&#x141;" horiz-adv-x="579" 
d="M65 312l-15 26l79 45v367h30v-349l64 37l15 -26l-79 -46v-336h370v-30h-400v349z" />
    <glyph glyph-name="lslash" unicode="&#x142;" horiz-adv-x="288" 
d="M65 312l-15 26l79 45v367h30v-349l64 37l15 -26l-79 -46v-366h-30v349z" />
    <glyph glyph-name="Scaron" unicode="&#x160;" horiz-adv-x="490" 
d="M50 0v30h195q68 0 116.5 48.5t48.5 116.5q0 49 -20 81.5t-51.5 48.5t-70 27.5t-77 24t-70 31t-51.5 56t-20 91.5q0 81 57 138t138 57h195v-30h-195q-68 0 -116.5 -48.5t-48.5 -116.5q0 -49 20 -81.5t51.5 -48.5t70 -27.5t77 -24t70 -31t51.5 -56t20 -91.5q0 -81 -57 -138
t-138 -57h-195zM245 770l-100 100h42l58 -58l58 58h42z" />
    <glyph glyph-name="scaron" unicode="&#x161;" horiz-adv-x="365" 
d="M50 0v30h132q43 0 73 29.5t30 72.5q0 41 -24 64t-58.5 33t-69.5 21t-59 40t-24 78q0 55 39 93.5t94 38.5h132v-30h-132q-43 0 -73 -29.5t-30 -72.5q0 -41 24 -64t59 -33t69.5 -21t58.5 -39.5t24 -78.5q0 -55 -39 -93.5t-94 -38.5h-132zM182 520l-100 100h42l58 -58l58 58
h42z" />
    <glyph glyph-name="Ydieresis" unicode="&#x178;" horiz-adv-x="866" 
d="M448 200v-200h-30v200l-368 550h35l348 -520l347 520h36zM363 820v-70h-30v70h30zM533 820v-70h-30v70h30z" />
    <glyph glyph-name="Zcaron" unicode="&#x17d;" 
d="M50 720v30h493v-30l-463 -629v-61h470v-30h-500v100l455 620h-455zM300 770l-100 100h42l58 -58l58 58h42z" />
    <glyph glyph-name="zcaron" unicode="&#x17e;" horiz-adv-x="490" 
d="M397 470h-347v30h386v-30l-349 -440h353v-30h-390v30zM245 520l-100 100h42l58 -58l58 58h42z" />
    <glyph glyph-name="florin" unicode="&#x192;" horiz-adv-x="350" 
d="M-170 -220q91 0 155.5 64.5t64.5 155.5v500q0 104 73 177t177 73v-30q-91 0 -155.5 -64.5t-64.5 -155.5h220v-30h-220v-470q0 -104 -73 -177t-177 -73v30z" />
    <glyph glyph-name="circumflex" unicode="&#x2c6;" horiz-adv-x="400" 
d="M200 750l150 -150h-42l-108 108l-108 -108h-42z" />
    <glyph glyph-name="caron" unicode="&#x2c7;" horiz-adv-x="300" 
d="M150 650l-100 100h42l58 -58l58 58h42z" />
    <glyph glyph-name="ring" unicode="&#x2da;" horiz-adv-x="250" 
d="M50 675q0 31 22 53t53 22t53 -22t22 -53t-22 -53t-53 -22t-53 22t-22 53zM80 675q0 -19 13 -32t32 -13t32 13t13 32t-13 32t-32 13t-32 -13t-13 -32z" />
    <glyph glyph-name="tilde" unicode="&#x2dc;" horiz-adv-x="320" 
d="M229 682l-130 35l-16 -17l-33 9l41 41l129 -35l17 17l33 -9z" />
    <glyph glyph-name="endash" unicode="&#x2013;" horiz-adv-x="480" 
d="M430 360h-380v30h380v-30z" />
    <glyph glyph-name="emdash" unicode="&#x2014;" horiz-adv-x="550" 
d="M500 360h-450v30h450v-30z" />
    <glyph glyph-name="quoteleft" unicode="&#x2018;" horiz-adv-x="160" 
d="M80 750v-120h30v-30h-60v150h30z" />
    <glyph glyph-name="quoteright" unicode="&#x2019;" horiz-adv-x="160" 
d="M80 600v120h-30v30h60v-150h-30z" />
    <glyph glyph-name="quotesinglbase" unicode="&#x201a;" horiz-adv-x="160" 
d="M80 -100v120h-30v30h60v-150h-30z" />
    <glyph glyph-name="quotedblleft" unicode="&#x201c;" horiz-adv-x="240" 
d="M80 750v-120h30v-30h-60v150h30zM160 750v-120h30v-30h-60v150h30z" />
    <glyph glyph-name="quotedblright" unicode="&#x201d;" horiz-adv-x="240" 
d="M160 600v120h-30v30h60v-150h-30zM80 600v120h-30v30h60v-150h-30z" />
    <glyph glyph-name="quotedblbase" unicode="&#x201e;" horiz-adv-x="240" 
d="M160 -100v120h-30v30h60v-150h-30zM80 -100v120h-30v30h60v-150h-30z" />
    <glyph glyph-name="bullet" unicode="&#x2022;" horiz-adv-x="250" 
d="M50 375q0 31 22 53t53 22t53 -22t22 -53t-22 -53t-53 -22t-53 22t-22 53z" />
    <glyph glyph-name="Euro" unicode="&#x20ac;" horiz-adv-x="525" 
d="M50 330v30h237v-30h-154q17 -128 114.5 -214t227.5 -86v-30q-143 0 -249.5 95t-123.5 235h-52zM50 390v30h52q17 140 123.5 235t249.5 95v-30q-130 0 -227.5 -86.5t-114.5 -213.5h154v-30h-237z" />
    <glyph glyph-name="minus" unicode="&#x2212;" horiz-adv-x="490" 
d="M440 360h-390v30h390v-30z" />
    <glyph glyph-name="apple" unicode="&#xf8ff;" horiz-adv-x="739" 
d="M20 700h700l-85 -175h-175l-90 -350l-90 350h-175zM270 480l100 -305l100 305h140l-240 -480l-240 480h140z" />
    </font>
</defs>
</svg>
